<?xml version="1.0" standalone="no"?>
<!DOCTYPE svg PUBLIC "-//W3C//DTD SVG 20010904//EN"
 "http://www.w3.org/TR/2001/REC-SVG-20010904/DTD/svg10.dtd">
<svg version="1.0" xmlns="http://www.w3.org/2000/svg"
 width="500.000000pt" height="500.000000pt" viewBox="0 0 500.000000 500.000000"
 preserveAspectRatio="xMidYMid meet">
<metadata>
Created by potrace 1.14, written by Peter Selinger 2001-2017
</metadata>
<g transform="translate(0.000000,500.000000) scale(0.100000,-0.100000)"
fill="#000000" stroke="none">
<path d="M2050 4694 c-257 -26 -508 -99 -745 -214 -592 -289 -1020 -815 -1180
-1450 -13 -52 -26 -106 -28 -120 -3 -14 -8 -45 -12 -70 -4 -25 -9 -54 -12 -65
-12 -53 -15 -402 -4 -506 56 -532 295 -1020 681 -1385 95 -90 272 -228 339
-265 20 -11 50 -28 66 -38 250 -151 595 -262 895 -290 87 -8 410 -6 470 3 14
2 48 7 75 10 27 4 51 9 55 11 3 2 25 6 50 10 176 26 495 151 695 272 265 160
527 407 680 641 15 23 32 42 38 42 22 0 295 143 385 203 134 89 202 149 302
267 30 35 61 71 68 78 43 47 74 175 60 251 -15 83 -112 181 -308 311 -36 24
-67 44 -68 46 -2 1 25 56 60 121 l63 118 0 85 c0 47 -6 102 -13 122 -21 59
-91 121 -190 169 l-88 42 -43 126 c-63 182 -152 360 -260 516 -299 433 -710
732 -1209 880 -208 61 -320 77 -567 80 -121 1 -236 1 -255 -1z"/>
</g>
</svg>
